# xmcd CD database file
#
# Track frame offsets:
#	150
#	22280
#	42355
#	54770
#	63450
#	75107
#	94825
#	120205
#	139390
#	164780
#
# Disc length: 2494 seconds
#
# Revision: 8
# Processed by: cddbd v1.5.2PL0 Copyright (c) Steve Scherf et al.
# Submitted via: CDex 1.70beta2
#
DISCID=8009bc0a
DTITLE=Dinosaur Jr - Green Mind
DYEAR=1991
DGENRE=Rock
TTITLE0=The Wagon
TTITLE1=Puke and Cry
TTITLE2=Blowing It
TTITLE3=I Live For That Look
TTITLE4=Flying Cloud
TTITLE5=How'd You Pin That One On Me
TTITLE6=Water
TTITLE7=Muck
TTITLE8=Thumb
TTITLE9=Green Mind
EXTD=Green Mind\n---------\nI picture things a certain way \nthen go back to it another day\nthe green mind said its's okay\ncos you knowwhere they're gonna be\nall's you have to do is come with me\nitscool - there probably asleep\n\non the outside\nis w
EXTD=here they always hide\ncome to my side\nand i'll introduce you to\nsome of their kind\nI know you always try\nan' now its your time \nto take in their point of view - its nothing new\n\nI've been bouncing off the walls\nI can't hang with them for lo
EXTD=ng\nthey're cool but i need you\non a certain level i think they're great\nbut on another i can'trelate\nto anything they do\n\non the outside\nmight be with them tonite\nunless you decide to call\nthen i'll check out you\n\nHangingheavy  \nsuch a r
EXTD=outine\nI just begun to forget why i seldom \ntryto break out of their scene \n\nNow I gotta workon you \nso the frogs'll hang  \nthey'll always be hanging\nnow we're here what d'wedo\n\nI've been sortin thru' the prose YEAR: 1991
EXTT0=
EXTT1=
EXTT2=
EXTT3=
EXTT4=
EXTT5=
EXTT6=
EXTT7=
EXTT8=
EXTT9=
PLAYORDER=
